<svg style="display:inline-block;vertical-align:middle;" width="40px" height="40px" viewBox="0 0 48 48" data-reactid=".1cnetohmz6s.4.0.0.0.4.1.0.1.4.0.0"><g data-name="Group 10827" transform="translate(-1922 17871)" data-reactid=".1cnetohmz6s.4.0.0.0.4.1.0.1.4.0.0.0"><circle cx="24" cy="24" r="24" fill="#fff" data-name="Ellipse 396" transform="translate(1922 -17871)" data-reactid=".1cnetohmz6s.4.0.0.0.4.1.0.1.4.0.0.0.0"></circle><g fill="#ff666b" transform="translate(1938 -17856)" data-reactid=".1cnetohmz6s.4.0.0.0.4.1.0.1.4.0.0.0.1"><path d="M9.512.529a.611.611 0 00-.363.133L3.038 5.551a.611.611 0 00-.228.476v11.609H2.2a.611.611 0 100 1.223h14.661a.611.611 0 100-1.223h-.611V9.694a.611.611 0 00-.383-.569l-5.725-2.289V1.14a.611.611 0 00-.63-.611zm-.593 1.883v15.224H4.032V6.32zm1.223 5.741l4.887 1.955v7.527h-4.887z" data-name="Path 51484" transform="translate(-1.588 -.529)" data-reactid=".1cnetohmz6s.4.0.0.0.4.1.0.1.4.0.0.0.1.0"></path><path d="M4.233 289.063h1.222v1.222H4.233z" data-name="Path 51485" transform="translate(-1.179 -279.287)" data-reactid=".1cnetohmz6s.4.0.0.0.4.1.0.1.4.0.0.0.1.1"></path><path d="M6.35 289.063h1.222v1.222H6.35z" data-name="Path 51486" transform="translate(-.852 -279.287)" data-reactid=".1cnetohmz6s.4.0.0.0.4.1.0.1.4.0.0.0.1.2"></path><path d="M4.233 286.946h1.222v1.222H4.233z" data-name="Path 51487" transform="translate(-1.179 -279.614)" data-reactid=".1cnetohmz6s.4.0.0.0.4.1.0.1.4.0.0.0.1.3"></path><path d="M6.35 286.946h1.222v1.222H6.35z" data-name="Path 51488" transform="translate(-.852 -279.614)" data-reactid=".1cnetohmz6s.4.0.0.0.4.1.0.1.4.0.0.0.1.4"></path><path d="M4.233 291.179h1.222v1.221H4.233z" data-name="Path 51489" transform="translate(-1.179 -278.96)" data-reactid=".1cnetohmz6s.4.0.0.0.4.1.0.1.4.0.0.0.1.5"></path><path d="M6.35 291.179h1.222v1.221H6.35z" data-name="Path 51490" transform="translate(-.852 -278.96)" data-reactid=".1cnetohmz6s.4.0.0.0.4.1.0.1.4.0.0.0.1.6"></path><path d="M4.233 293.3h1.222v1.222H4.233z" data-name="Path 51491" transform="translate(-1.179 -278.632)" data-reactid=".1cnetohmz6s.4.0.0.0.4.1.0.1.4.0.0.0.1.7"></path><path d="M6.35 293.3h1.222v1.222H6.35z" data-name="Path 51492" transform="translate(-.852 -278.632)" data-reactid=".1cnetohmz6s.4.0.0.0.4.1.0.1.4.0.0.0.1.8"></path><path d="M6.35 284.829h1.222v1.222H6.35z" data-name="Path 51493" transform="translate(-.852 -279.941)" data-reactid=".1cnetohmz6s.4.0.0.0.4.1.0.1.4.0.0.0.1.9"></path><path d="M9.525 289.063h1.222v1.222H9.525z" data-name="Path 51494" transform="translate(-.361 -279.287)" data-reactid=".1cnetohmz6s.4.0.0.0.4.1.0.1.4.0.0.0.1.a"></path><path d="M9.525 291.179h1.222v1.221H9.525z" data-name="Path 51495" transform="translate(-.361 -278.96)" data-reactid=".1cnetohmz6s.4.0.0.0.4.1.0.1.4.0.0.0.1.b"></path><path d="M11.642 291.179h1.222v1.221h-1.222z" data-name="Path 51496" transform="translate(-.034 -278.96)" data-reactid=".1cnetohmz6s.4.0.0.0.4.1.0.1.4.0.0.0.1.c"></path><path d="M9.525 293.3h1.222v1.222H9.525z" data-name="Path 51497" transform="translate(-.361 -278.632)" data-reactid=".1cnetohmz6s.4.0.0.0.4.1.0.1.4.0.0.0.1.d"></path><path d="M11.642 293.3h1.222v1.222h-1.222z" data-name="Path 51498" transform="translate(-.034 -278.632)" data-reactid=".1cnetohmz6s.4.0.0.0.4.1.0.1.4.0.0.0.1.e"></path></g></g></svg>