<svg style="display:inline-block;vertical-align:middle;" width="40px" height="40px" viewBox="0 0 48 48" data-reactid=".1cnetohmz6s.4.0.0.0.4.1.0.1.0.0"><g data-name="Group 10827" transform="translate(-3295 18156)" data-reactid=".1cnetohmz6s.4.0.0.0.4.1.0.1.0.0.0"><circle cx="24" cy="24" r="24" fill="#fff" data-name="Ellipse 398" transform="translate(3295 -18156)" data-reactid=".1cnetohmz6s.4.0.0.0.4.1.0.1.0.0.0.0"></circle><g transform="translate(3307 -18144)" data-reactid=".1cnetohmz6s.4.0.0.0.4.1.0.1.0.0.0.1"><g data-name="Group 521" transform="translate(2.726 2.672)" data-reactid=".1cnetohmz6s.4.0.0.0.4.1.0.1.0.0.0.1.0"><g data-name="Group 520" data-reactid=".1cnetohmz6s.4.0.0.0.4.1.0.1.0.0.0.1.0.0"><path fill="#ff686e" d="M151.153 141.827a8.812 8.812 0 01-.077 1.149l.026-.193a8.576 8.576 0 01-.413 1.7c-.046.13-.1.258-.148.386s.073-.172.019-.046l-.041.094-.1.218a8.471 8.471 0 01-.888 1.449c-.081.107.113-.145.03-.039l-.063.079c-.042.053-.086.1-.129.157a9.061 9.061 0 01-.293.329c-.193.206-.4.4-.609.587-.1.089-.206.176-.312.26-.04.032-.147.114.04-.03l-.081.061c-.063.048-.128.094-.192.14a8.488 8.488 0 01-.838.52 8.536 8.536 0 01-.645.316c-.17.075.13-.054.015-.006l-.128.052a8.421 8.421 0 01-1.955.51l.193-.026a8.68 8.68 0 01-2.3 0l.193.026a8.572 8.572 0 01-1.7-.413c-.13-.046-.258-.1-.386-.149s.172.073.046.019l-.094-.041c-.073-.032-.145-.066-.218-.1a8.467 8.467 0 01-1.449-.888c-.107-.081.145.113.039.03l-.08-.063c-.053-.042-.1-.086-.157-.129a9.061 9.061 0 01-.329-.293c-.206-.193-.4-.4-.587-.609a7.158 7.158 0 01-.26-.312c-.032-.04-.114-.147.03.04l-.061-.081c-.048-.063-.094-.128-.14-.192a8.48 8.48 0 01-.52-.838 8.536 8.536 0 01-.316-.645c-.075-.17.054.13.006.015a2.84 2.84 0 01-.051-.128 8.42 8.42 0 01-.51-1.955l.026.193a8.676 8.676 0 010-2.3l-.026.193a8.581 8.581 0 01.413-1.7c.046-.13.1-.258.149-.386s-.073.172-.019.046l.041-.094c.032-.073.067-.145.1-.218a8.467 8.467 0 01.888-1.449c.081-.107-.113.145-.03.039l.063-.08c.042-.053.086-.1.129-.157.094-.112.193-.221.293-.329.193-.206.4-.4.609-.587.1-.089.206-.176.313-.26.04-.032.147-.114-.04.03l.081-.061c.063-.048.128-.094.192-.14a8.465 8.465 0 01.838-.52 8.536 8.536 0 01.646-.316c.17-.075-.13.054-.015.006l.128-.051a8.422 8.422 0 011.955-.51l-.193.026a8.679 8.679 0 012.3 0l-.193-.026a8.586 8.586 0 011.7.413c.13.046.258.1.386.149s-.172-.073-.046-.019l.094.041.217.1a8.465 8.465 0 011.449.888c.107.081-.145-.113-.039-.03l.08.063c.053.042.1.086.157.129.112.095.221.193.329.293.206.193.4.4.587.609.089.1.176.206.26.312.032.04.114.147-.03-.04l.061.081c.048.063.094.128.14.192a8.476 8.476 0 01.52.838 8.536 8.536 0 01.316.645c.075.17-.054-.13-.006-.015l.052.128a8.421 8.421 0 01.51 1.955l-.026-.193a8.831 8.831 0 01.077 1.149.724.724 0 001.449 0 9.169 9.169 0 10-4.551 7.934 9.417 9.417 0 002.73-2.45 9.134 9.134 0 001.821-5.484.724.724 0 10-1.449 0z" data-name="Path 9025" transform="translate(-134.224 -132.638)" data-reactid=".1cnetohmz6s.4.0.0.0.4.1.0.1.0.0.0.1.0.0.0"></path></g></g><g data-name="Group 523" transform="translate(0 11.08)" data-reactid=".1cnetohmz6s.4.0.0.0.4.1.0.1.0.0.0.1.1"><g data-name="Group 522" data-reactid=".1cnetohmz6s.4.0.0.0.4.1.0.1.0.0.0.1.1.0"><path fill="#ff686e" d="M37.421 461.4H42.6a.782.782 0 000-1.565h-5.179a.782.782 0 000 1.565z" data-name="Path 9026" transform="translate(-36.639 -459.833)" data-reactid=".1cnetohmz6s.4.0.0.0.4.1.0.1.0.0.0.1.1.0.0"></path></g></g><g data-name="Group 525" transform="translate(17.035 11.08)" data-reactid=".1cnetohmz6s.4.0.0.0.4.1.0.1.0.0.0.1.2"><g data-name="Group 524" data-reactid=".1cnetohmz6s.4.0.0.0.4.1.0.1.0.0.0.1.2.0"><path fill="#ff686e" d="M699.755 461.4h5.183a.782.782 0 000-1.565h-5.183a.782.782 0 100 1.565z" data-name="Path 9027" transform="translate(-698.973 -459.833)" data-reactid=".1cnetohmz6s.4.0.0.0.4.1.0.1.0.0.0.1.2.0.0"></path></g></g><g data-name="Group 527" transform="translate(11.131 17.035)" data-reactid=".1cnetohmz6s.4.0.0.0.4.1.0.1.0.0.0.1.3"><g data-name="Group 526" data-reactid=".1cnetohmz6s.4.0.0.0.4.1.0.1.0.0.0.1.3.0"><path fill="#ff686e" d="M462.979 705.305v-5.183a.782.782 0 10-1.565 0v5.183a.782.782 0 001.565 0z" data-name="Path 9028" transform="translate(-461.415 -699.34)" data-reactid=".1cnetohmz6s.4.0.0.0.4.1.0.1.0.0.0.1.3.0.0"></path></g></g><g data-name="Group 529" transform="translate(11.131)" data-reactid=".1cnetohmz6s.4.0.0.0.4.1.0.1.0.0.0.1.4"><g data-name="Group 528" data-reactid=".1cnetohmz6s.4.0.0.0.4.1.0.1.0.0.0.1.4.0"><path fill="#ff686e" d="M462.979 42.969v-5.183a.782.782 0 00-1.565 0v5.183a.782.782 0 001.565 0z" data-name="Path 9029" transform="translate(-461.415 -37.004)" data-reactid=".1cnetohmz6s.4.0.0.0.4.1.0.1.0.0.0.1.4.0.0"></path></g></g><g data-name="Group 531" transform="translate(8.125 8.068)" data-reactid=".1cnetohmz6s.4.0.0.0.4.1.0.1.0.0.0.1.5"><g data-name="Group 530" data-reactid=".1cnetohmz6s.4.0.0.0.4.1.0.1.0.0.0.1.5.0"><path fill="#ff686e" d="M359.854 355.773a3.369 3.369 0 01-.025.387l.028-.208a3.263 3.263 0 01-.092.444 3.084 3.084 0 01-.109.312c.1-.25.03-.074 0-.018a3 3 0 01-.241.41l-.064.089c.151-.2.068-.088.032-.044a3.067 3.067 0 01-.33.339l-.084.071c-.1.084.173-.128.013-.012a3.023 3.023 0 01-.407.246l-.1.048c-.133.062.187-.076.051-.021a2.75 2.75 0 01-.246.085 3 3 0 01-.48.1l.208-.028a3.188 3.188 0 01-.773 0l.208.028a3.267 3.267 0 01-.444-.091 2.788 2.788 0 01-.213-.07l-.1-.041c.25.1.074.03.019 0a3.014 3.014 0 01-.41-.241l-.089-.064c.2.151.088.068.044.031a3.067 3.067 0 01-.339-.33l-.07-.083c-.084-.1.128.173.011.013a3.026 3.026 0 01-.246-.407c-.017-.033-.032-.066-.048-.1-.062-.133.076.187.021.051a3.116 3.116 0 01-.086-.246 2.99 2.99 0 01-.1-.48l.028.208a3.192 3.192 0 010-.773l-.028.208a3.238 3.238 0 01.092-.444 2.628 2.628 0 01.11-.312c-.1.25-.03.074 0 .018a3.018 3.018 0 01.241-.41l.065-.088c-.151.2-.068.088-.032.044a3.067 3.067 0 01.33-.339l.084-.071c.1-.084-.173.128-.014.012a3.028 3.028 0 01.407-.246l.1-.048c.133-.062-.187.076-.051.021.08-.033.163-.06.246-.085a2.986 2.986 0 01.48-.1l-.208.028a3.2 3.2 0 01.773 0l-.208-.028a3.266 3.266 0 01.444.091 3.3 3.3 0 01.213.069l.1.041c-.25-.1-.074-.03-.019 0a2.99 2.99 0 01.41.241l.089.064c-.2-.151-.088-.068-.044-.032a3.067 3.067 0 01.339.33l.071.084c.084.1-.128-.173-.011-.013a3.015 3.015 0 01.246.407c.017.033.032.066.048.1.062.133-.076-.187-.021-.051.033.08.06.163.086.246a3 3 0 01.1.48l-.028-.208a3.37 3.37 0 01.025.387.782.782 0 001.565 0 3.809 3.809 0 00-.629-2.09 3.927 3.927 0 00-1.777-1.436 3.808 3.808 0 00-4.085.856 3.757 3.757 0 00-1.016 1.888 3.917 3.917 0 00.264 2.358 3.792 3.792 0 007.242-1.576.782.782 0 10-1.565 0z" data-name="Path 9030" transform="translate(-353.836 -351.978)" data-reactid=".1cnetohmz6s.4.0.0.0.4.1.0.1.0.0.0.1.5.0.0"></path></g></g></g></g></svg>