<svg width="22px" height="25px" style="display:inline-block;vertical-align:middle;" version="1.1" x="0px" y="0px" viewBox="-12 14 105 105" data-reactid=".1yj4h8fa1z4.a.2.0.0.0.0.2.5.1.0:$p22710.0.4.0.0"><path class="st0" d="M-4.3,66.9c-0.8,0-1.6-0.5-1.9-1.4c-2.1-6.3-0.9-23.1,16.4-31.7c5.3-2.6,10.4-4,15.1-4c12.9,0,20.4,9.4,24,13.9 c0.6,0.8,0.7,2.1,0,2.9c-3.2,3.2-7.4,6.2-12.9,9.1c-9.8,5.3-20.2,7.1-28.5,8.5c-4.5,0.8-8.4,1.4-11.6,2.5 C-3.8,66.9-4.1,66.9-4.3,66.9L-4.3,66.9z" data-reactid=".1yj4h8fa1z4.a.2.0.0.0.0.2.5.1.0:$p22710.0.4.0.0.0"></path><path class="st0" d="M81.7,34.9c-3.4-4.5-8.3-7.3-12.7-7.3c-2.6,0-6.2,0.9-9.1,5.3c-1.5,2.3-2.3,4.6-3.1,6.9 c-2,5.9-4.2,12.1-18.6,19.9c-9.3,5-18.8,6.7-27.3,8.1C0.9,69.6-7.8,71.1-10.8,78.3c-0.3,0.7-0.2,1.4,0.2,2c0.4,0.6,1.1,0.9,1.8,0.8 c2.7-0.3,6.1,0.2,9.7,0.9c-0.5,0.6-1,1.1-1.6,1.7c-1.5,1.5-3.1,3.1-2.6,5.2c0.4,1.9,2.4,2.8,3.9,3.3c1.6,0.6,3.4,0.9,5.1,0.9 c5,0,8.9-2.3,10.6-6.2c6.8,1.1,13.9,1.3,20.2,1.3l6.6,0c0.3,0.2,0.7,0.7,1.1,1c2,2,5.4,5.4,10.9,5.4c0.5,0,1.1,0,1.7-0.1 c2.7-0.4,5.4-1.1,6.3-3.1c0.9-2.1-0.5-4.1-2.1-6.4c-1.9-2.7-4.3-6.1-4-10.6c0.8-1.6,1.5-3.3,2.2-5.1C61,64.3,63,59.4,67.6,55 c1.7,1.4,4.1,2.2,6.5,2.2l0,0c1.8,0,3.5-0.4,5.2-1.2c2.5-1.2,4.4-3.9,5.3-7.4C85.7,43.8,84.7,38.7,81.7,34.9L81.7,34.9z M70.6,44 c-1.1,0-2-0.9-2-2c0-1.1,0.9-2,2-2c1.1,0,2,0.9,2,2C72.6,43.1,71.7,44,70.6,44z" data-reactid=".1yj4h8fa1z4.a.2.0.0.0.0.2.5.1.0:$p22710.0.4.0.0.1"></path></svg>