<svg width="20px" height="20px" style="display:inline-block;vertical-align:middle;" viewBox="0 0 512 512" data-reactid=".2cw2wk7xws6.4.0.1.0.0.2.1.0.0"><path fill="url(#paint0_linear_1006_2150)" d="M256 42.666C138.24 42.666 42.667 138.24 42.667 256S138.24 469.333 256 469.333 469.333 373.76 469.333 256 373.76 42.666 256 42.666zm21.333 362.667h-42.666v-42.666h42.666v42.666zM321.493 240l-19.2 19.627C286.933 275.2 277.333 288 277.333 320h-42.666v-10.667c0-23.466 9.6-44.8 24.96-60.373l26.453-26.88c7.893-7.68 12.587-18.347 12.587-30.08 0-23.467-19.2-42.667-42.667-42.667-23.467 0-42.667 19.2-42.667 42.667h-42.666c0-47.147 38.186-85.333 85.333-85.333s85.333 38.186 85.333 85.333c0 18.773-7.68 35.84-19.84 48z" data-reactid=".2cw2wk7xws6.4.0.1.0.0.2.1.0.0.0"></path><defs data-reactid=".2cw2wk7xws6.4.0.1.0.0.2.1.0.0.1"><linearGradient id="paint0_linear_1006_2150" x1="256" x2="256" y1="42.666" y2="469.333" gradientUnits="userSpaceOnUse" data-reactid=".2cw2wk7xws6.4.0.1.0.0.2.1.0.0.1.0"><stop stop-color="#FD4A85" data-reactid=".2cw2wk7xws6.4.0.1.0.0.2.1.0.0.1.0.0"></stop><stop offset="1" stop-color="#FF9D8C" data-reactid=".2cw2wk7xws6.4.0.1.0.0.2.1.0.0.1.0.1"></stop></linearGradient></defs></svg>