<svg style="display:inline-block;vertical-align:middle;" width="20px" height="17px" fill="none" viewBox="0 0 62 60" data-reactid=".2545px1gxq0.4.0.0.0.4.0.0.0"><path d="M61.2 29.274a2.955 2.955 0 00-.243-4.229L33.26.81c-1.257-1.1-3.272-1.077-4.503.052L.964 26.338A2.938 2.938 0 00.83 30.56l.697.726c1.156 1.203 3.024 1.346 4.17.32l2.078-1.86v27.23A3.023 3.023 0 0010.798 60h10.833a3.023 3.023 0 003.024-3.023V37.926h13.818v19.05c-.024 1.67 1.17 3.023 2.84 3.023h11.48a3.023 3.023 0 003.024-3.024V30.13s.574.502 1.281 1.124c.707.621 2.19.123 3.314-1.113l.788-.866z" data-reactid=".2545px1gxq0.4.0.0.0.4.0.0.0.0"></path></svg>